<svg xmlns="http://www.w3.org/2000/svg" viewBox="0 0 48 48"><path fill="#231f20" d="M22,37.38a3.49,3.49,0,1,0-3.78,5.87A3.49,3.49,0,1,0,22,37.38Zm-.39,2.95c.11,1.89-3.14,1.88-3,0C18.49,38.4,21.76,38.43,21.61,40.33ZM35,37.38c-4.12-2.22-7.61,3.23-3.78,5.86A3.49,3.49,0,1,0,35,37.38Zm-.39,2.95c.11,1.88-3.14,1.88-3,0C31.49,38.4,34.76,38.43,34.61,40.33Zm6.14-27.74a1,1,0,0,0-.79-.38H15v-6a2,2,0,0,0-2-2H8a1,1,0,0,0,0,2h5v25a4,4,0,0,0,4,4h19.9a1,1,0,0,0,0-2H17a2,2,0,0,1-2-2v-1H36a1,1,0,0,0,1-1c-.13-.09,3.91-15.71,3.89-15.81A1,1,0,0,0,40.75,12.59ZM35.18,28.26H15v-14H38.68ZM18,16.24H35a1,1,0,0,1,0,2H18A1,1,0,0,1,18,16.24Zm0,4H34a1,1,0,0,1,0,2H18A1,1,0,0,1,18,20.24Zm0,4H33a1,1,0,0,1,0,2H18A1,1,0,0,1,18,24.24Z" data-name="chart"/></svg>