<svg xmlns="http://www.w3.org/2000/svg" width="252.916" height="252.916" viewBox="0 0 252.916 252.916">
  <g id="car_0111_shopourfaves_HP_shoes" transform="translate(-577 -1615.734)">
    <path id="Path_61682" data-name="Path 61682" d="M126.458,0A126.458,126.458,0,1,1,0,126.458,126.458,126.458,0,0,1,126.458,0Z" transform="translate(577 1615.734)" fill="#627c9d"/>
    <path id="Path_94928" data-name="Path 94928" d="M8.063.4A12.5,12.5,0,0,1,5.475.144,12.488,12.488,0,0,1,3.269-.525,12.67,12.67,0,0,1,1.519-1.4,8.559,8.559,0,0,1,.3-2.275l2.412-4.05q.488.362,1.106.762a11.578,11.578,0,0,0,1.331.737,9.07,9.07,0,0,0,1.488.55A5.884,5.884,0,0,0,8.2-4.062a3.5,3.5,0,0,0,1.288-.213,1.808,1.808,0,0,0,.837-.637,1.8,1.8,0,0,0,.3-1.062,1.887,1.887,0,0,0-.269-1.019A2.8,2.8,0,0,0,9.538-7.8a10.9,10.9,0,0,0-1.394-.781Q7.3-8.987,6.15-9.512a10.932,10.932,0,0,1-1.588-.913,6.634,6.634,0,0,1-1.288-1.162,4.925,4.925,0,0,1-.85-1.438,4.808,4.808,0,0,1-.3-1.725,5.67,5.67,0,0,1,.494-2.325,6.344,6.344,0,0,1,1.412-2,6.8,6.8,0,0,1,2.2-1.406A7.513,7.513,0,0,1,9.075-21a10.123,10.123,0,0,1,2.244.262,13.489,13.489,0,0,1,2.206.7,9.022,9.022,0,0,1,1.812.987l-1.95,3.838a8.4,8.4,0,0,0-1.306-.731,7.984,7.984,0,0,0-1.444-.494,6.266,6.266,0,0,0-1.45-.175,3.229,3.229,0,0,0-1.256.219,1.824,1.824,0,0,0-.8.612,1.54,1.54,0,0,0-.281.919,1.314,1.314,0,0,0,.162.669,1.522,1.522,0,0,0,.494.5,5.973,5.973,0,0,0,.831.444q.5.225,1.175.5,1.525.662,2.725,1.294a9.564,9.564,0,0,1,2.019,1.381,5.013,5.013,0,0,1,1.238,1.719,5.717,5.717,0,0,1,.419,2.281,6.132,6.132,0,0,1-.969,3.487A6.14,6.14,0,0,1,12.212-.369,10.318,10.318,0,0,1,8.063.4ZM19.65,0V-20.625h4.813v8.175h6.425v-8.175h4.825V0H30.887V-8.225H24.462V0ZM49.763.4a10,10,0,0,1-4.05-.825A10.341,10.341,0,0,1,42.4-2.719a10.783,10.783,0,0,1-2.231-3.412,10.771,10.771,0,0,1-.806-4.169,10.771,10.771,0,0,1,.806-4.169A10.783,10.783,0,0,1,42.4-17.881a10.341,10.341,0,0,1,3.313-2.294A10,10,0,0,1,49.763-21a10,10,0,0,1,4.05.825,10.341,10.341,0,0,1,3.313,2.294,10.783,10.783,0,0,1,2.231,3.413,10.771,10.771,0,0,1,.806,4.169,10.771,10.771,0,0,1-.806,4.169,10.783,10.783,0,0,1-2.231,3.412A10.341,10.341,0,0,1,53.813-.425,10,10,0,0,1,49.763.4Zm0-4.65a5,5,0,0,0,2.106-.437,4.774,4.774,0,0,0,1.65-1.244,5.787,5.787,0,0,0,1.075-1.912,7.5,7.5,0,0,0,.381-2.456,7.5,7.5,0,0,0-.381-2.456,5.787,5.787,0,0,0-1.075-1.912,4.774,4.774,0,0,0-1.65-1.244,5,5,0,0,0-2.106-.437,5,5,0,0,0-2.106.438,4.774,4.774,0,0,0-1.65,1.244,5.787,5.787,0,0,0-1.075,1.912A7.5,7.5,0,0,0,44.55-10.3a7.5,7.5,0,0,0,.381,2.456,5.787,5.787,0,0,0,1.075,1.912,4.774,4.774,0,0,0,1.65,1.244A5,5,0,0,0,49.763-4.25ZM63.813,0V-20.625h11.85V-16.4H68.625v3.95h6.738v4.225H68.625v4h7.037V0ZM85.85.4A12.5,12.5,0,0,1,83.262.144a12.488,12.488,0,0,1-2.206-.669,12.67,12.67,0,0,1-1.75-.875,8.558,8.558,0,0,1-1.219-.875L80.5-6.325q.487.362,1.106.762a11.578,11.578,0,0,0,1.331.737,9.07,9.07,0,0,0,1.487.55,5.884,5.884,0,0,0,1.563.213,3.5,3.5,0,0,0,1.288-.213,1.808,1.808,0,0,0,.837-.637,1.8,1.8,0,0,0,.3-1.062,1.887,1.887,0,0,0-.269-1.019,2.8,2.8,0,0,0-.819-.806,10.9,10.9,0,0,0-1.394-.781q-.844-.406-1.994-.931a10.932,10.932,0,0,1-1.588-.913,6.634,6.634,0,0,1-1.287-1.162,4.925,4.925,0,0,1-.85-1.438,4.808,4.808,0,0,1-.3-1.725,5.67,5.67,0,0,1,.494-2.325,6.344,6.344,0,0,1,1.412-2,6.8,6.8,0,0,1,2.2-1.406A7.513,7.513,0,0,1,86.862-21a10.123,10.123,0,0,1,2.244.262,13.489,13.489,0,0,1,2.206.7,9.022,9.022,0,0,1,1.813.987l-1.95,3.838a8.4,8.4,0,0,0-1.306-.731,7.984,7.984,0,0,0-1.444-.494,6.266,6.266,0,0,0-1.45-.175,3.229,3.229,0,0,0-1.256.219,1.824,1.824,0,0,0-.8.612,1.54,1.54,0,0,0-.281.919,1.314,1.314,0,0,0,.162.669,1.522,1.522,0,0,0,.494.5,5.973,5.973,0,0,0,.831.444q.5.225,1.175.5,1.525.662,2.725,1.294a9.564,9.564,0,0,1,2.019,1.381,5.013,5.013,0,0,1,1.238,1.719A5.717,5.717,0,0,1,93.7-6.075a6.132,6.132,0,0,1-.969,3.487A6.14,6.14,0,0,1,90-.369,10.318,10.318,0,0,1,85.85.4Z" transform="translate(655.958 1811.192)" fill="#fff"/>
    <path id="Path_94932" data-name="Path 94932" d="M8.29.32A6.8,6.8,0,0,1,3.445-1.235,6.042,6.042,0,0,1,1.8-5.84V-16.5H5.66v9.53a4.639,4.639,0,0,0,.6,2.71,2.377,2.377,0,0,0,2.025.79,2.389,2.389,0,0,0,2.035-.79,4.639,4.639,0,0,0,.6-2.71V-16.5h3.86V-5.84a6.053,6.053,0,0,1-1.64,4.605A6.785,6.785,0,0,1,8.29.32ZM18.67,0V-16.5h6.1a7.079,7.079,0,0,1,2.875.56,4.59,4.59,0,0,1,2.025,1.69,5.05,5.05,0,0,1,.75,2.85,5.307,5.307,0,0,1-.75,2.895,4.834,4.834,0,0,1-2.025,1.8,6.534,6.534,0,0,1-2.875.615H22.52V0Zm3.85-9.15h1.01a4.823,4.823,0,0,0,1.36-.19,2.217,2.217,0,0,0,1.06-.65,1.873,1.873,0,0,0,.41-1.29,1.908,1.908,0,0,0-.41-1.3,2.2,2.2,0,0,0-1.06-.655,4.823,4.823,0,0,0-1.36-.19H22.52ZM39.41,0V-13.11H35.54V-16.5h11.6v3.39H43.27V0ZM55.76.32a8,8,0,0,1-3.24-.66,8.273,8.273,0,0,1-2.65-1.835,8.626,8.626,0,0,1-1.785-2.73A8.617,8.617,0,0,1,47.44-8.24a8.617,8.617,0,0,1,.645-3.335,8.626,8.626,0,0,1,1.785-2.73,8.273,8.273,0,0,1,2.65-1.835,8,8,0,0,1,3.24-.66,8,8,0,0,1,3.24.66,8.273,8.273,0,0,1,2.65,1.835,8.626,8.626,0,0,1,1.785,2.73A8.617,8.617,0,0,1,64.08-8.24a8.617,8.617,0,0,1-.645,3.335,8.626,8.626,0,0,1-1.785,2.73A8.273,8.273,0,0,1,59-.34,8,8,0,0,1,55.76.32Zm0-3.72a4,4,0,0,0,1.685-.35,3.82,3.82,0,0,0,1.32-.995,4.63,4.63,0,0,0,.86-1.53A6,6,0,0,0,59.93-8.24a6,6,0,0,0-.305-1.965,4.63,4.63,0,0,0-.86-1.53,3.82,3.82,0,0,0-1.32-.995,4,4,0,0,0-1.685-.35,4,4,0,0,0-1.685.35,3.819,3.819,0,0,0-1.32.995,4.63,4.63,0,0,0-.86,1.53,6,6,0,0,0-.3,1.965,6,6,0,0,0,.3,1.965,4.63,4.63,0,0,0,.86,1.53,3.82,3.82,0,0,0,1.32.995A4,4,0,0,0,55.76-3.4Z" transform="translate(671.458 1684.192)" fill="#fff"/>
    <g id="Mobile_-_Small_-_off" data-name="Mobile - Small - % off" transform="translate(735.928 1693.272)">
      <g id="Group_13125" data-name="Group 13125" transform="translate(-1.906 -1.136)">
        <path id="Path_94931" data-name="Path 94931" d="M16.789-28.1a15.362,15.362,0,0,1-7.024-1.575,12.5,12.5,0,0,1-4.946-4.378,11.561,11.561,0,0,1-1.827-6.458,11.488,11.488,0,0,1,1.843-6.458A12.621,12.621,0,0,1,9.8-51.345a15.291,15.291,0,0,1,6.993-1.575,15.362,15.362,0,0,1,7.024,1.575,12.5,12.5,0,0,1,4.946,4.378,11.561,11.561,0,0,1,1.827,6.458,11.561,11.561,0,0,1-1.827,6.458,12.5,12.5,0,0,1-4.946,4.378A15.362,15.362,0,0,1,16.789-28.1ZM13.892,0l30.24-51.975h6.583L20.475,0Zm2.9-33.957a6.7,6.7,0,0,0,3.323-.835,6.41,6.41,0,0,0,2.394-2.315,6.43,6.43,0,0,0,.9-3.4,6.43,6.43,0,0,0-.9-3.4,6.446,6.446,0,0,0-2.378-2.315,6.679,6.679,0,0,0-3.339-.835,6.7,6.7,0,0,0-3.323.835,6.292,6.292,0,0,0-2.378,2.315,6.519,6.519,0,0,0-.882,3.4,6.519,6.519,0,0,0,.882,3.4,6.292,6.292,0,0,0,2.378,2.315A6.7,6.7,0,0,0,16.789-33.957ZM47.722.945A15.389,15.389,0,0,1,40.714-.63a12.479,12.479,0,0,1-4.961-4.378,11.561,11.561,0,0,1-1.827-6.457,11.561,11.561,0,0,1,1.827-6.458A12.479,12.479,0,0,1,40.714-22.3a15.389,15.389,0,0,1,7.009-1.575A15.362,15.362,0,0,1,54.747-22.3a12.5,12.5,0,0,1,4.945,4.378,11.561,11.561,0,0,1,1.827,6.458,11.561,11.561,0,0,1-1.827,6.457A12.5,12.5,0,0,1,54.747-.63,15.362,15.362,0,0,1,47.722.945Zm0-5.859a6.7,6.7,0,0,0,3.323-.835A6.41,6.41,0,0,0,53.44-8.064a6.43,6.43,0,0,0,.9-3.4,6.349,6.349,0,0,0-.9-3.386,6.449,6.449,0,0,0-2.394-2.3,6.7,6.7,0,0,0-3.323-.835,6.7,6.7,0,0,0-3.323.835,6.329,6.329,0,0,0-2.378,2.3,6.436,6.436,0,0,0-.882,3.386,6.519,6.519,0,0,0,.882,3.4A6.292,6.292,0,0,0,44.4-5.749,6.7,6.7,0,0,0,47.722-4.914Z" transform="translate(0.436 54.056)" fill="#fff"/>
        <path id="Path_94930" data-name="Path 94930" d="M13.118.448A11.2,11.2,0,0,1,8.582-.476a11.582,11.582,0,0,1-3.71-2.569,12.077,12.077,0,0,1-2.5-3.822,12.064,12.064,0,0,1-.9-4.669,12.064,12.064,0,0,1,.9-4.669,12.077,12.077,0,0,1,2.5-3.822A11.582,11.582,0,0,1,8.582-22.6a11.2,11.2,0,0,1,4.536-.924,11.2,11.2,0,0,1,4.536.924,11.582,11.582,0,0,1,3.71,2.569,12.077,12.077,0,0,1,2.5,3.822,12.064,12.064,0,0,1,.9,4.669,12.064,12.064,0,0,1-.9,4.669,12.077,12.077,0,0,1-2.5,3.822,11.582,11.582,0,0,1-3.71,2.569A11.2,11.2,0,0,1,13.118.448ZM13.1-3.92a6.487,6.487,0,0,0,2.716-.56,6.369,6.369,0,0,0,2.142-1.582,7.345,7.345,0,0,0,1.414-2.415,8.932,8.932,0,0,0,.5-3.059,8.932,8.932,0,0,0-.5-3.059,7.345,7.345,0,0,0-1.414-2.415,6.369,6.369,0,0,0-2.142-1.582,6.487,6.487,0,0,0-2.716-.56,6.466,6.466,0,0,0-2.695.56A6.349,6.349,0,0,0,8.26-17.01,7.25,7.25,0,0,0,6.853-14.6a9.046,9.046,0,0,0-.5,3.059,9.046,9.046,0,0,0,.5,3.059A7.25,7.25,0,0,0,8.26-6.062,6.349,6.349,0,0,0,10.409-4.48,6.467,6.467,0,0,0,13.1-3.92ZM29.26,0V-23.1H42.238v3.976H32.7l1.092-.994v7.812L32.7-13.566h8.9V-9.59H32.7L33.8-10.85V0ZM46.7,0V-23.1H59.682v3.976H50.148l1.092-.994v7.812l-1.092-1.26h8.9V-9.59h-8.9l1.092-1.26V0Zm17.25-17.868-.939-.645,1.029-1.519L62.3-20.653l.359-1.127,1.756.547v-1.813h1.249v1.813l1.764-.547.359,1.127-1.748.621,1.029,1.519-.939.645-1.094-1.421Z" transform="translate(0.436 85.056)" fill="#fff"/>
      </g>
    </g>
    <path id="Path_94947" data-name="Path 94947" d="M31.752,1.47a36.628,36.628,0,0,1-12.2-2.009,28.511,28.511,0,0,1-10-5.929,24.3,24.3,0,0,1-6.37-9.6l12.593-6.076a13.616,13.616,0,0,0,5.66,7.546,17.48,17.48,0,0,0,9.971,2.842,15.875,15.875,0,0,0,7.669-1.74,12.161,12.161,0,0,0,4.949-4.875,14.6,14.6,0,0,0,1.739-7.2,14.3,14.3,0,0,0-2.621-8.648,16.567,16.567,0,0,0-7.4-5.537A29.991,29.991,0,0,0,24.451-41.7a29.575,29.575,0,0,0-8.575,1.225,28.365,28.365,0,0,0-7.6,3.577L15.19-80.85H56.448v13.916H28.714l-2.4,15.827q11.172-2.4,20.09,1.568a21.353,21.353,0,0,1,8.061,4.826,22.571,22.571,0,0,1,5.292,7.865,26.919,26.919,0,0,1,1.887,10.29,27.58,27.58,0,0,1-3.969,15.019A26.2,26.2,0,0,1,46.942-1.887,33.7,33.7,0,0,1,31.752,1.47Zm66.836.1A29.4,29.4,0,0,1,81.193-3.724,34.8,34.8,0,0,1,69.507-18.473a53.634,53.634,0,0,1-4.189-21.9A53.591,53.591,0,0,1,69.507-62.3,34.824,34.824,0,0,1,81.193-77.028,29.4,29.4,0,0,1,98.588-82.32a29.287,29.287,0,0,1,17.37,5.292A34.9,34.9,0,0,1,127.62-62.3a53.591,53.591,0,0,1,4.189,21.928,53.634,53.634,0,0,1-4.189,21.9A34.877,34.877,0,0,1,115.958-3.724,29.287,29.287,0,0,1,98.588,1.568Zm0-13.965a12.51,12.51,0,0,0,8.771-3.381,21.868,21.868,0,0,0,5.684-9.678,49.3,49.3,0,0,0,2.009-14.92,49.248,49.248,0,0,0-2.009-14.945,21.867,21.867,0,0,0-5.684-9.653,12.51,12.51,0,0,0-8.771-3.381,12.6,12.6,0,0,0-8.8,3.381,21.743,21.743,0,0,0-5.708,9.653,49.248,49.248,0,0,0-2.009,14.945,49.3,49.3,0,0,0,2.009,14.92,21.744,21.744,0,0,0,5.708,9.678A12.6,12.6,0,0,0,98.588-12.4Z" transform="translate(603.727 1775.592)" fill="#fff"/>
  </g>
</svg>
