<svg xmlns="http://www.w3.org/2000/svg" height="20" width="20"><path d="M5.5 18q-.625 0-1.062-.438Q4 17.125 4 16.5t.438-1.062Q4.875 15 5.5 15t1.062.438Q7 15.875 7 16.5t-.438 1.062Q6.125 18 5.5 18Zm9 0q-.625 0-1.062-.438Q13 17.125 13 16.5t.438-1.062Q13.875 15 14.5 15t1.062.438Q16 15.875 16 16.5t-.438 1.062Q15.125 18 14.5 18ZM5.271 5.5 7 9.5h6.271l1.708-4ZM4.625 4H16.5q.292 0 .427.229t.031.479l-2.312 5.375q-.188.417-.552.667-.365.25-.823.25H6.604l-.875 1.5H16V14H5.75q-.896 0-1.323-.75-.427-.75.011-1.5l1.083-1.875L2.792 3.5H1V2h2.771ZM7 9.5h6.271Z"/></svg>