<svg xmlns="http://www.w3.org/2000/svg" width="252.916" height="252.916" viewBox="0 0 252.916 252.916">
  <g id="car_0111_shopourfaves_HP_clearance" transform="translate(-1400 -1615.734)">
    <path id="Path_61682" data-name="Path 61682" d="M126.458,0A126.458,126.458,0,1,1,0,126.458,126.458,126.458,0,0,1,126.458,0Z" transform="translate(1400 1615.734)" fill="#9f1012"/>
    <path id="Path_94945" data-name="Path 94945" d="M-72.75.4a11.754,11.754,0,0,1-4.412-.831,11.8,11.8,0,0,1-3.662-2.3,10.8,10.8,0,0,1-2.488-3.406,9.73,9.73,0,0,1-.9-4.15,9.744,9.744,0,0,1,.906-4.169,10.907,10.907,0,0,1,2.488-3.412,11.743,11.743,0,0,1,3.65-2.3A11.673,11.673,0,0,1-72.775-21a12.339,12.339,0,0,1,3.613.525,10.344,10.344,0,0,1,2.925,1.362l-2.05,4.1a5.96,5.96,0,0,0-1.875-.913,7.879,7.879,0,0,0-2.3-.338,7.172,7.172,0,0,0-2.562.45,6.466,6.466,0,0,0-2.081,1.262,5.783,5.783,0,0,0-1.388,1.894,5.6,5.6,0,0,0-.494,2.356,5.6,5.6,0,0,0,.494,2.356A5.783,5.783,0,0,0-77.106-6.05a6.466,6.466,0,0,0,2.081,1.263,7.172,7.172,0,0,0,2.563.45,7.879,7.879,0,0,0,2.3-.338,5.96,5.96,0,0,0,1.875-.912l2.05,4.1A10.632,10.632,0,0,1-69.1-.144,11.993,11.993,0,0,1-72.75.4Zm9.387-.4V-20.625h4.813v16.4h7.025V0ZM-48.75,0V-20.625H-36.9V-16.4h-7.037v3.95H-37.2v4.225h-6.737v4H-36.9V0Zm13.963,0,8.35-20.625h4.475L-13.625,0h-5.187l-1.475-4.025h-7.825L-29.6,0Zm8.312-8.25h4.537L-24.2-14.087ZM-11.162,0V-20.625h7.625a8.578,8.578,0,0,1,3.725.756A5.681,5.681,0,0,1,2.65-17.687a6.47,6.47,0,0,1,.875,3.45,7.152,7.152,0,0,1-.506,2.744A5.906,5.906,0,0,1,1.563-9.381,6.492,6.492,0,0,1-.75-8.025L5.95,0H-.162L-5.887-7.438H-6.35V0ZM-6.35-11.437h1.262a5.37,5.37,0,0,0,1.938-.306,2.472,2.472,0,0,0,1.194-.906A2.525,2.525,0,0,0-1.55-14.1a2.35,2.35,0,0,0-.912-2,4.3,4.3,0,0,0-2.625-.687H-6.35ZM5.412,0l8.35-20.625h4.475L26.575,0H21.387L19.912-4.025H12.087L10.6,0Zm8.313-8.25h4.537L16-14.087ZM29.037,0V-20.625H33.85l8.1,12.613V-20.625h4.813V0H41.95l-8.1-12.612V0Zm32.35.4a11.754,11.754,0,0,1-4.412-.831,11.8,11.8,0,0,1-3.663-2.3,10.8,10.8,0,0,1-2.487-3.406,9.73,9.73,0,0,1-.9-4.15,9.744,9.744,0,0,1,.906-4.169,10.907,10.907,0,0,1,2.488-3.412,11.743,11.743,0,0,1,3.65-2.3A11.673,11.673,0,0,1,61.362-21a12.339,12.339,0,0,1,3.613.525A10.344,10.344,0,0,1,67.9-19.113l-2.05,4.1a5.96,5.96,0,0,0-1.875-.913,7.879,7.879,0,0,0-2.3-.338,7.172,7.172,0,0,0-2.562.45,6.466,6.466,0,0,0-2.081,1.262,5.783,5.783,0,0,0-1.388,1.894A5.6,5.6,0,0,0,55.15-10.3a5.6,5.6,0,0,0,.494,2.356A5.783,5.783,0,0,0,57.031-6.05a6.466,6.466,0,0,0,2.081,1.263,7.172,7.172,0,0,0,2.563.45,7.879,7.879,0,0,0,2.3-.338,5.96,5.96,0,0,0,1.875-.912l2.05,4.1A10.632,10.632,0,0,1,65.037-.144,11.992,11.992,0,0,1,61.387.4ZM70.775,0V-20.625h11.85V-16.4H75.587v3.95h6.738v4.225H75.587v4h7.037V0Z" transform="translate(1530.458 1812.192)" fill="#fff"/>
    <path id="Path_94944" data-name="Path 94944" d="M8.29.32A6.8,6.8,0,0,1,3.445-1.235,6.042,6.042,0,0,1,1.8-5.84V-16.5H5.66v9.53a4.639,4.639,0,0,0,.6,2.71,2.377,2.377,0,0,0,2.025.79,2.389,2.389,0,0,0,2.035-.79,4.639,4.639,0,0,0,.6-2.71V-16.5h3.86V-5.84a6.053,6.053,0,0,1-1.64,4.605A6.785,6.785,0,0,1,8.29.32ZM18.67,0V-16.5h6.1a7.079,7.079,0,0,1,2.875.56,4.59,4.59,0,0,1,2.025,1.69,5.05,5.05,0,0,1,.75,2.85,5.307,5.307,0,0,1-.75,2.895,4.834,4.834,0,0,1-2.025,1.8,6.534,6.534,0,0,1-2.875.615H22.52V0Zm3.85-9.15h1.01a4.823,4.823,0,0,0,1.36-.19,2.217,2.217,0,0,0,1.06-.65,1.873,1.873,0,0,0,.41-1.29,1.908,1.908,0,0,0-.41-1.3,2.2,2.2,0,0,0-1.06-.655,4.823,4.823,0,0,0-1.36-.19H22.52ZM39.41,0V-13.11H35.54V-16.5h11.6v3.39H43.27V0ZM55.76.32a8,8,0,0,1-3.24-.66,8.273,8.273,0,0,1-2.65-1.835,8.626,8.626,0,0,1-1.785-2.73A8.617,8.617,0,0,1,47.44-8.24a8.617,8.617,0,0,1,.645-3.335,8.626,8.626,0,0,1,1.785-2.73,8.273,8.273,0,0,1,2.65-1.835,8,8,0,0,1,3.24-.66,8,8,0,0,1,3.24.66,8.273,8.273,0,0,1,2.65,1.835,8.626,8.626,0,0,1,1.785,2.73A8.617,8.617,0,0,1,64.08-8.24a8.617,8.617,0,0,1-.645,3.335,8.626,8.626,0,0,1-1.785,2.73A8.273,8.273,0,0,1,59-.34,8,8,0,0,1,55.76.32Zm0-3.72a4,4,0,0,0,1.685-.35,3.82,3.82,0,0,0,1.32-.995,4.63,4.63,0,0,0,.86-1.53A6,6,0,0,0,59.93-8.24a6,6,0,0,0-.305-1.965,4.63,4.63,0,0,0-.86-1.53,3.82,3.82,0,0,0-1.32-.995,4,4,0,0,0-1.685-.35,4,4,0,0,0-1.685.35,3.819,3.819,0,0,0-1.32.995,4.63,4.63,0,0,0-.86,1.53,6,6,0,0,0-.3,1.965,6,6,0,0,0,.3,1.965,4.63,4.63,0,0,0,.86,1.53,3.82,3.82,0,0,0,1.32.995A4,4,0,0,0,55.76-3.4Z" transform="translate(1498.458 1682.78)" fill="#fff"/>
    <g id="Mobile_-_Small_-_off" data-name="Mobile - Small - % off" transform="translate(1433.008 1691.78)">
      <g id="Group_13125" data-name="Group 13125" transform="translate(128.015 -1.056)">
        <path id="Path_94942" data-name="Path 94942" d="M16.789-28.1a15.362,15.362,0,0,1-7.024-1.575,12.5,12.5,0,0,1-4.946-4.378,11.561,11.561,0,0,1-1.827-6.458,11.488,11.488,0,0,1,1.843-6.458A12.621,12.621,0,0,1,9.8-51.345a15.291,15.291,0,0,1,6.993-1.575,15.362,15.362,0,0,1,7.024,1.575,12.5,12.5,0,0,1,4.946,4.378,11.561,11.561,0,0,1,1.827,6.458,11.561,11.561,0,0,1-1.827,6.458,12.5,12.5,0,0,1-4.946,4.378A15.362,15.362,0,0,1,16.789-28.1ZM13.892,0l30.24-51.975h6.583L20.475,0Zm2.9-33.957a6.7,6.7,0,0,0,3.323-.835,6.41,6.41,0,0,0,2.394-2.315,6.43,6.43,0,0,0,.9-3.4,6.43,6.43,0,0,0-.9-3.4,6.446,6.446,0,0,0-2.378-2.315,6.679,6.679,0,0,0-3.339-.835,6.7,6.7,0,0,0-3.323.835,6.292,6.292,0,0,0-2.378,2.315,6.519,6.519,0,0,0-.882,3.4,6.519,6.519,0,0,0,.882,3.4,6.292,6.292,0,0,0,2.378,2.315A6.7,6.7,0,0,0,16.789-33.957ZM47.722.945A15.389,15.389,0,0,1,40.714-.63a12.479,12.479,0,0,1-4.961-4.378,11.561,11.561,0,0,1-1.827-6.457,11.561,11.561,0,0,1,1.827-6.458A12.479,12.479,0,0,1,40.714-22.3a15.389,15.389,0,0,1,7.009-1.575A15.362,15.362,0,0,1,54.747-22.3a12.5,12.5,0,0,1,4.945,4.378,11.561,11.561,0,0,1,1.827,6.458,11.561,11.561,0,0,1-1.827,6.457A12.5,12.5,0,0,1,54.747-.63,15.362,15.362,0,0,1,47.722.945Zm0-5.859a6.7,6.7,0,0,0,3.323-.835A6.41,6.41,0,0,0,53.44-8.064a6.43,6.43,0,0,0,.9-3.4,6.349,6.349,0,0,0-.9-3.386,6.449,6.449,0,0,0-2.394-2.3,6.7,6.7,0,0,0-3.323-.835,6.7,6.7,0,0,0-3.323.835,6.329,6.329,0,0,0-2.378,2.3,6.436,6.436,0,0,0-.882,3.386,6.519,6.519,0,0,0,.882,3.4A6.292,6.292,0,0,0,44.4-5.749,6.7,6.7,0,0,0,47.722-4.914Z" transform="translate(0.436 54.056)" fill="#fff"/>
        <path id="Path_94943" data-name="Path 94943" d="M13.118.448A11.2,11.2,0,0,1,8.582-.476a11.582,11.582,0,0,1-3.71-2.569,12.077,12.077,0,0,1-2.5-3.822,12.064,12.064,0,0,1-.9-4.669,12.064,12.064,0,0,1,.9-4.669,12.077,12.077,0,0,1,2.5-3.822A11.582,11.582,0,0,1,8.582-22.6a11.2,11.2,0,0,1,4.536-.924,11.2,11.2,0,0,1,4.536.924,11.582,11.582,0,0,1,3.71,2.569,12.077,12.077,0,0,1,2.5,3.822,12.064,12.064,0,0,1,.9,4.669,12.064,12.064,0,0,1-.9,4.669,12.077,12.077,0,0,1-2.5,3.822,11.582,11.582,0,0,1-3.71,2.569A11.2,11.2,0,0,1,13.118.448ZM13.1-3.92a6.487,6.487,0,0,0,2.716-.56,6.369,6.369,0,0,0,2.142-1.582,7.345,7.345,0,0,0,1.414-2.415,8.932,8.932,0,0,0,.5-3.059,8.932,8.932,0,0,0-.5-3.059,7.345,7.345,0,0,0-1.414-2.415,6.369,6.369,0,0,0-2.142-1.582,6.487,6.487,0,0,0-2.716-.56,6.466,6.466,0,0,0-2.695.56A6.349,6.349,0,0,0,8.26-17.01,7.25,7.25,0,0,0,6.853-14.6a9.046,9.046,0,0,0-.5,3.059,9.046,9.046,0,0,0,.5,3.059A7.25,7.25,0,0,0,8.26-6.062,6.349,6.349,0,0,0,10.409-4.48,6.467,6.467,0,0,0,13.1-3.92ZM29.26,0V-23.1H42.238v3.976H32.7l1.092-.994v7.812L32.7-13.566h8.9V-9.59H32.7L33.8-10.85V0ZM46.7,0V-23.1H59.682v3.976H50.148l1.092-.994v7.812l-1.092-1.26h8.9V-9.59h-8.9l1.092-1.26V0Zm17.25-17.868-.939-.645,1.029-1.519L62.3-20.653l.359-1.127,1.756.547v-1.813h1.249v1.813l1.764-.547.359,1.127-1.748.621,1.029,1.519-.939.645-1.094-1.421Z" transform="translate(0.436 85.056)" fill="#fff"/>
      </g>
      <path id="Path_94941" data-name="Path 94941" d="M2.55,0,41.3-68.3H4.65V-82.5h60.6v4.8L21.65,0Zm95.4,1.6A30,30,0,0,1,80.2-3.8,35.511,35.511,0,0,1,68.275-18.85,54.728,54.728,0,0,1,64-41.2a54.684,54.684,0,0,1,4.275-22.375A35.535,35.535,0,0,1,80.2-78.6,30,30,0,0,1,97.95-84a29.884,29.884,0,0,1,17.725,5.4,35.613,35.613,0,0,1,11.9,15.025A54.684,54.684,0,0,1,131.85-41.2a54.728,54.728,0,0,1-4.275,22.35,35.588,35.588,0,0,1-11.9,15.05A29.884,29.884,0,0,1,97.95,1.6Zm0-14.25a12.765,12.765,0,0,0,8.95-3.45,22.315,22.315,0,0,0,5.8-9.875A50.309,50.309,0,0,0,114.75-41.2a50.253,50.253,0,0,0-2.05-15.25,22.313,22.313,0,0,0-5.8-9.85,12.765,12.765,0,0,0-8.95-3.45,12.854,12.854,0,0,0-8.975,3.45,22.187,22.187,0,0,0-5.825,9.85A50.253,50.253,0,0,0,81.1-41.2a50.309,50.309,0,0,0,2.05,15.225A22.188,22.188,0,0,0,88.975-16.1,12.854,12.854,0,0,0,97.95-12.65Z" transform="translate(-2.55 84)" fill="#fff"/>
    </g>
  </g>
</svg>
