<svg xmlns="http://www.w3.org/2000/svg" width="252.916" height="252.916" viewBox="0 0 252.916 252.916">
  <g id="car_0111_shopourfaves_HP_newarrivals" transform="translate(-1126 -1142.217)">
    <path id="Path_61682" data-name="Path 61682" d="M126.458,0A126.458,126.458,0,1,1,0,126.458,126.458,126.458,0,0,1,126.458,0Z" transform="translate(1126 1142.217)" fill="#245969"/>
    <g id="Group_39440" data-name="Group 39440" transform="translate(0 -9.944)">
      <path id="Path_94923" data-name="Path 94923" d="M-45.738,0V-29.7h6.93l11.664,18.162V-29.7h6.93V0h-6.93L-38.808-18.162V0Zm33.084,0V-29.7H4.41v6.084H-5.724v5.688h9.7v6.084h-9.7v5.76H4.41V0ZM16.2,0,7.74-29.7h7.722L20.43-9.576,25.9-29.7h5.184L36.558-9.576,41.526-29.7h7.722L40.77,0h-7.7L28.494-16.326,23.9,0ZM-99.882,39-87.858,9.3h6.444L-69.408,39h-7.47L-79,33.2H-90.27L-92.412,39Zm11.97-11.88h6.534l-3.258-8.406ZM-65.862,39V9.3h10.98a12.352,12.352,0,0,1,5.364,1.089,8.181,8.181,0,0,1,3.546,3.141,9.317,9.317,0,0,1,1.26,4.968,10.3,10.3,0,0,1-.729,3.951,8.505,8.505,0,0,1-2.1,3.042,9.349,9.349,0,0,1-3.33,1.953L-41.22,39h-8.8l-8.244-10.71h-.666V39Zm6.93-16.47h1.818a7.732,7.732,0,0,0,2.79-.441A3.56,3.56,0,0,0-52.6,20.784,3.636,3.636,0,0,0-52.02,18.7a3.384,3.384,0,0,0-1.314-2.88,6.2,6.2,0,0,0-3.78-.99h-1.818ZM-37.98,39V9.3H-27a12.352,12.352,0,0,1,5.364,1.089A8.181,8.181,0,0,1-18.09,13.53,9.317,9.317,0,0,1-16.83,18.5a10.3,10.3,0,0,1-.729,3.951,8.505,8.505,0,0,1-2.1,3.042,9.349,9.349,0,0,1-3.33,1.953L-13.338,39h-8.8l-8.244-10.71h-.666V39Zm6.93-16.47h1.818a7.732,7.732,0,0,0,2.79-.441,3.56,3.56,0,0,0,1.719-1.305,3.636,3.636,0,0,0,.585-2.088,3.384,3.384,0,0,0-1.314-2.88,6.2,6.2,0,0,0-3.78-.99H-31.05ZM-10.1,39V9.3h6.93V39ZM9.738,39-2.718,9.3h7.83l7.344,19.26L19.8,9.3h7.83L15.174,39ZM23.85,39,35.874,9.3h6.444L54.324,39h-7.47L44.73,33.2H33.462L31.32,39ZM35.82,27.12h6.534L39.1,18.714ZM57.87,39V9.3H64.8V32.916H74.916V39Zm28.872.576a18.086,18.086,0,0,1-6.9-1.332,18.246,18.246,0,0,1-2.52-1.26,12.325,12.325,0,0,1-1.755-1.26l3.474-5.832q.7.522,1.593,1.1a16.673,16.673,0,0,0,1.917,1.062,13.06,13.06,0,0,0,2.142.792,8.473,8.473,0,0,0,2.25.306,5.041,5.041,0,0,0,1.854-.306A2.45,2.45,0,0,0,90.432,30.4a2.717,2.717,0,0,0-.387-1.467,4.028,4.028,0,0,0-1.179-1.161,15.7,15.7,0,0,0-2.007-1.125q-1.215-.585-2.871-1.341A15.742,15.742,0,0,1,81.7,23.988a9.554,9.554,0,0,1-1.854-1.674,7.093,7.093,0,0,1-1.224-2.07,6.923,6.923,0,0,1-.432-2.484,8.165,8.165,0,0,1,.711-3.348,9.135,9.135,0,0,1,2.034-2.88A9.789,9.789,0,0,1,84.1,9.507a10.818,10.818,0,0,1,4.1-.747,14.577,14.577,0,0,1,3.231.378,19.424,19.424,0,0,1,3.177,1.008,12.992,12.992,0,0,1,2.61,1.422L94.41,17.094a12.089,12.089,0,0,0-1.881-1.053,11.5,11.5,0,0,0-2.079-.711,9.024,9.024,0,0,0-2.088-.252,4.65,4.65,0,0,0-1.809.315,2.627,2.627,0,0,0-1.152.882A2.217,2.217,0,0,0,85,17.6a1.893,1.893,0,0,0,.234.963,2.192,2.192,0,0,0,.711.72,8.6,8.6,0,0,0,1.2.639q.72.324,1.692.72,2.2.954,3.924,1.863a13.772,13.772,0,0,1,2.907,1.989,7.218,7.218,0,0,1,1.782,2.475,8.232,8.232,0,0,1,.6,3.285,8.456,8.456,0,0,1-5.328,8.217A14.858,14.858,0,0,1,86.742,39.576Z" transform="translate(1252.458 1270.077)" fill="#fff"/>
    </g>
  </g>
</svg>
