<svg xmlns="http://www.w3.org/2000/svg" width="252.916" height="252.916" viewBox="0 0 252.916 252.916">
  <g id="car_0111_shopourfaves_HP_tops" transform="translate(-851 -1615.734)">
    <g id="Group_19414" data-name="Group 19414" transform="translate(0 473.782)">
      <path id="Path_61682" data-name="Path 61682" d="M126.458,0A126.458,126.458,0,1,1,0,126.458,126.458,126.458,0,0,1,126.458,0Z" transform="translate(851 1141.952)" fill="#4a9faa"/>
    </g>
    <path id="Path_94936" data-name="Path 94936" d="M4.987,0V-16.388H.15v-4.237h14.5v4.237H9.813V0ZM25.425.4a10,10,0,0,1-4.05-.825,10.341,10.341,0,0,1-3.312-2.294,10.783,10.783,0,0,1-2.231-3.412,10.771,10.771,0,0,1-.806-4.169,10.771,10.771,0,0,1,.806-4.169,10.783,10.783,0,0,1,2.231-3.413,10.341,10.341,0,0,1,3.313-2.294A10,10,0,0,1,25.425-21a10,10,0,0,1,4.05.825,10.341,10.341,0,0,1,3.312,2.294,10.783,10.783,0,0,1,2.231,3.413,10.771,10.771,0,0,1,.806,4.169,10.771,10.771,0,0,1-.806,4.169,10.783,10.783,0,0,1-2.231,3.412A10.341,10.341,0,0,1,29.475-.425,10,10,0,0,1,25.425.4Zm0-4.65a5,5,0,0,0,2.106-.437,4.774,4.774,0,0,0,1.65-1.244,5.787,5.787,0,0,0,1.075-1.912,7.5,7.5,0,0,0,.381-2.456,7.5,7.5,0,0,0-.381-2.456,5.787,5.787,0,0,0-1.075-1.912,4.774,4.774,0,0,0-1.65-1.244,5,5,0,0,0-2.106-.437,5,5,0,0,0-2.106.438,4.774,4.774,0,0,0-1.65,1.244,5.787,5.787,0,0,0-1.075,1.912,7.5,7.5,0,0,0-.381,2.456,7.5,7.5,0,0,0,.381,2.456,5.787,5.787,0,0,0,1.075,1.912,4.774,4.774,0,0,0,1.65,1.244A5,5,0,0,0,25.425-4.25ZM39.475,0V-20.625H47.1a8.849,8.849,0,0,1,3.594.7,5.738,5.738,0,0,1,2.531,2.112,6.313,6.313,0,0,1,.938,3.563,6.633,6.633,0,0,1-.937,3.619,6.042,6.042,0,0,1-2.531,2.25,8.167,8.167,0,0,1-3.594.769H44.287V0Zm4.813-11.437H45.55a6.028,6.028,0,0,0,1.7-.238,2.771,2.771,0,0,0,1.325-.812,2.341,2.341,0,0,0,.513-1.613,2.385,2.385,0,0,0-.513-1.631,2.75,2.75,0,0,0-1.325-.819,6.028,6.028,0,0,0-1.7-.238H44.287ZM62.325.4A12.5,12.5,0,0,1,59.737.144a12.488,12.488,0,0,1-2.206-.669,12.671,12.671,0,0,1-1.75-.875,8.559,8.559,0,0,1-1.219-.875l2.413-4.05q.488.362,1.106.762a11.578,11.578,0,0,0,1.331.737,9.07,9.07,0,0,0,1.487.55,5.884,5.884,0,0,0,1.563.213,3.5,3.5,0,0,0,1.287-.213,1.808,1.808,0,0,0,.838-.637,1.8,1.8,0,0,0,.3-1.062,1.887,1.887,0,0,0-.269-1.019A2.8,2.8,0,0,0,63.8-7.8a10.9,10.9,0,0,0-1.394-.781q-.844-.406-1.994-.931a10.932,10.932,0,0,1-1.588-.913,6.634,6.634,0,0,1-1.287-1.162,4.925,4.925,0,0,1-.85-1.438,4.808,4.808,0,0,1-.3-1.725,5.67,5.67,0,0,1,.494-2.325,6.344,6.344,0,0,1,1.412-2,6.8,6.8,0,0,1,2.2-1.406A7.513,7.513,0,0,1,63.338-21a10.123,10.123,0,0,1,2.244.262,13.489,13.489,0,0,1,2.206.7,9.022,9.022,0,0,1,1.813.987l-1.95,3.838a8.4,8.4,0,0,0-1.306-.731,7.984,7.984,0,0,0-1.444-.494,6.266,6.266,0,0,0-1.45-.175,3.229,3.229,0,0,0-1.256.219,1.824,1.824,0,0,0-.8.612,1.54,1.54,0,0,0-.281.919,1.314,1.314,0,0,0,.163.669,1.522,1.522,0,0,0,.494.5,5.973,5.973,0,0,0,.831.444q.5.225,1.175.5,1.525.662,2.725,1.294a9.564,9.564,0,0,1,2.019,1.381,5.013,5.013,0,0,1,1.237,1.719,5.717,5.717,0,0,1,.419,2.281,6.132,6.132,0,0,1-.969,3.487A6.14,6.14,0,0,1,66.475-.369,10.318,10.318,0,0,1,62.325.4Z" transform="translate(937.32 1799.574)" fill="#fff"/>
    <g id="Desktop_-_Small_-_Doorbuster" data-name="Desktop - Small - Doorbuster" transform="translate(916.496 1679.289)">
      <path id="Path_94933" data-name="Path 94933" d="M36.15,1.6A36.355,36.355,0,0,1,23.1-.65,30.445,30.445,0,0,1,12.95-6.9,27.907,27.907,0,0,1,6.4-16.2,28.448,28.448,0,0,1,4.1-27.65a37.836,37.836,0,0,1,3.325-14.7A59.687,59.687,0,0,1,16.5-57.15L37.45-82.5H57.1L32.8-53.7a13.59,13.59,0,0,1,3.45-1.2,19.635,19.635,0,0,1,4.05-.4,25.571,25.571,0,0,1,10.35,2.075,24.6,24.6,0,0,1,8.275,5.875,27.4,27.4,0,0,1,5.5,8.975A31.657,31.657,0,0,1,66.4-27a28.9,28.9,0,0,1-3.8,14.95A26.332,26.332,0,0,1,52-2,33.391,33.391,0,0,1,36.15,1.6ZM35.4-11.9A15.132,15.132,0,0,0,43-13.8,13.984,13.984,0,0,0,48.275-19,14.607,14.607,0,0,0,50.2-26.5a15.077,15.077,0,0,0-1.925-7.65,14.3,14.3,0,0,0-5.25-5.3A14.4,14.4,0,0,0,35.6-41.4a14.4,14.4,0,0,0-7.45,1.975,14.706,14.706,0,0,0-5.325,5.375A14.949,14.949,0,0,0,20.85-26.4a14.89,14.89,0,0,0,1.825,7.375,13.641,13.641,0,0,0,5.1,5.2A14.769,14.769,0,0,0,35.4-11.9Z" transform="translate(21.44 85.873)" fill="#fff"/>
      <path id="Path_94935" data-name="Path 94935" d="M13.1,5.52V.6A17.244,17.244,0,0,1,9.84.16,17.7,17.7,0,0,1,6.7-.88a17.282,17.282,0,0,1-2.74-1.5A9.9,9.9,0,0,1,1.9-4.2L5.22-9.54A13.377,13.377,0,0,0,7.94-7.35,14.351,14.351,0,0,0,11.1-5.9a10.383,10.383,0,0,0,3.14.52,6.057,6.057,0,0,0,2.49-.47,3.765,3.765,0,0,0,1.63-1.33,3.561,3.561,0,0,0,.58-2.04,3.668,3.668,0,0,0-.54-2.01,5.521,5.521,0,0,0-1.55-1.55,17.338,17.338,0,0,0-2.39-1.36q-1.38-.66-3.08-1.42a17.37,17.37,0,0,1-3.5-2.04,8.606,8.606,0,0,1-2.37-2.71,7.3,7.3,0,0,1-.85-3.57,9.024,9.024,0,0,1,1.02-4.17,10.051,10.051,0,0,1,2.91-3.43,10.232,10.232,0,0,1,4.51-1.9v-5.14h3.78v5.02a15.122,15.122,0,0,1,4.42,1.14,12.664,12.664,0,0,1,3.58,2.18l-2.72,5.1a10.228,10.228,0,0,0-3.14-1.91,9.818,9.818,0,0,0-3.64-.73,5.605,5.605,0,0,0-2.32.45,3.6,3.6,0,0,0-1.54,1.24,3.131,3.131,0,0,0-.54,1.81,2.788,2.788,0,0,0,.7,1.95,5.861,5.861,0,0,0,1.82,1.31q1.12.54,2.34,1.02a41.794,41.794,0,0,1,4.43,2.07,15.2,15.2,0,0,1,3.18,2.26,8.112,8.112,0,0,1,1.91,2.72A8.771,8.771,0,0,1,26-9.44,9.839,9.839,0,0,1,24.88-4.7a9.113,9.113,0,0,1-3.16,3.39A11.767,11.767,0,0,1,16.88.38V5.52Z" transform="translate(-1.9 38.52)" fill="#fff"/>
      <path id="Path_94934" data-name="Path 94934" d="M5.491.272A5.662,5.662,0,0,1,3.1-.2,3.813,3.813,0,0,1,1.487-1.538,3.506,3.506,0,0,1,.91-3.544a3.511,3.511,0,0,1,.846-2.342A6.632,6.632,0,0,1,4.31-7.6a11.565,11.565,0,0,1-.9-1.2,4.134,4.134,0,0,1-.48-1.016,3.461,3.461,0,0,1-.144-.994,3.166,3.166,0,0,1,.553-1.883,3.525,3.525,0,0,1,1.487-1.19A5.086,5.086,0,0,1,6.9-14.3a4.813,4.813,0,0,1,1.781.3,3.73,3.73,0,0,1,1.271.807,3.411,3.411,0,0,1,.765,1.122,3.212,3.212,0,0,1,.255,1.237,2.984,2.984,0,0,1-.723,1.947,6.762,6.762,0,0,1-2.091,1.6l2.346,2.474q.221-.17.489-.421t.54-.523q.272-.272.514-.527t.4-.433l1.7,1.632q-.484.553-1,1.1t-.918.918L15.13,0H11.67l-1.5-1.572A7.717,7.717,0,0,1,8-.213,6.534,6.534,0,0,1,5.491.272Zm.374-2.618a3.221,3.221,0,0,0,1.292-.28,4.448,4.448,0,0,0,1.224-.808L5.729-6.12a2.86,2.86,0,0,0-1.258.888,2.02,2.02,0,0,0-.459,1.279,1.528,1.528,0,0,0,.242.871,1.519,1.519,0,0,0,.667.548A2.318,2.318,0,0,0,5.865-2.346Zm.9-6.451a7.07,7.07,0,0,0,.995-.638,2.375,2.375,0,0,0,.6-.659,1.488,1.488,0,0,0,.2-.761,1.476,1.476,0,0,0-.2-.769,1.429,1.429,0,0,0-.544-.527,1.592,1.592,0,0,0-.786-.191,1.513,1.513,0,0,0-.757.187,1.32,1.32,0,0,0-.514.514,1.517,1.517,0,0,0-.183.752,1.824,1.824,0,0,0,.127.667,2.847,2.847,0,0,0,.387.671A6.844,6.844,0,0,0,6.766-8.8Zm.247,30.069A5.48,5.48,0,0,1,3.026,19.95a5.251,5.251,0,0,1-1.352-3.923V6.975H4.429v8.262a4.194,4.194,0,0,0,.608,2.554,2.355,2.355,0,0,0,1.976.778,2.355,2.355,0,0,0,1.976-.778A4.194,4.194,0,0,0,9.6,15.237V6.975H12.35v9.052A5.261,5.261,0,0,1,11,19.95,5.478,5.478,0,0,1,7.012,21.272ZM15.691,21V6.975h4.777a5.889,5.889,0,0,1,2.431.476,3.809,3.809,0,0,1,1.675,1.415,4.2,4.2,0,0,1,.612,2.342,4.425,4.425,0,0,1-.612,2.38A4.014,4.014,0,0,1,22.9,15.1a5.437,5.437,0,0,1-2.431.523H18.445V21Zm2.754-7.582h1.173a4.006,4.006,0,0,0,1.33-.212,2.123,2.123,0,0,0,.982-.68,1.914,1.914,0,0,0,.374-1.233,1.911,1.911,0,0,0-.374-1.237,2.108,2.108,0,0,0-.982-.672,4.08,4.08,0,0,0-1.33-.208H18.445Z" transform="translate(97.825 18.873)" fill="#fff"/>
    </g>
  </g>
</svg>
